<?xml version="1.0" encoding="iso-8859-1"?>
<!-- Generator: Adobe Illustrator 17.1.0, SVG Export Plug-In . SVG Version: 6.00 Build 0)  -->
<!DOCTYPE svg PUBLIC "-//W3C//DTD SVG 1.1//EN" "http://www.w3.org/Graphics/SVG/1.1/DTD/svg11.dtd">
<svg version="1.1" id="Capa_1" xmlns="http://www.w3.org/2000/svg" xmlns:xlink="http://www.w3.org/1999/xlink" x="0px" y="0px"
	 viewBox="0 0 512 512" style="enable-background:new 0 0 512 512;" xml:space="preserve" fill="white">
<g>
	<path d="M222.892,388h51.491c4.418,0,8-3.582,8-8V264.093h26.751c4.101,0,7.538-3.101,7.958-7.18l4.51-43.772
		c0.232-2.252-0.501-4.498-2.019-6.179c-1.517-1.682-3.675-2.641-5.939-2.641h-31.261v-17.73c0-3.662,1.159-3.936,2.928-3.936
		h27.682c4.418,0,8-3.582,8-8v-42.5c0-4.406-3.562-7.982-7.968-8L274.848,124c-26.752,0-41.029,11.77-48.295,21.643
		c-10.146,13.787-11.661,29.941-11.661,38.343v20.334h-16.489c-4.418,0-8,3.582-8,8v43.772c0,4.418,3.582,8,8,8h16.489V380
		C214.892,384.418,218.473,388,222.892,388z M206.402,248.093v-27.772h16.489c4.418,0,8-3.582,8-8v-28.334
		c0-5.185,0.833-18.376,8.547-28.86c7.386-10.037,19.3-15.126,35.376-15.126l30.177,0.122v26.533h-19.682
		c-9.421,0-18.928,6.164-18.928,19.936v25.73c0,4.418,3.582,8,8,8h30.395l-2.862,27.772h-27.533c-4.418,0-8,3.582-8,8V372h-35.491
		V256.093c0-4.418-3.582-8-8-8H206.402z"/>
	<path d="M437.022,74.984C388.67,26.63,324.381,0,256,0C187.624,0,123.338,26.63,74.984,74.984S0,187.624,0,256
		c0,68.388,26.63,132.678,74.984,181.028C123.335,485.375,187.621,512,256,512c68.385,0,132.673-26.625,181.021-74.972
		C485.372,388.679,512,324.389,512,256C512,187.622,485.372,123.336,437.022,74.984z M425.708,425.714
		C380.381,471.039,320.111,496,256,496c-64.106,0-124.374-24.961-169.703-70.286C40.965,380.386,16,320.113,16,256
		c0-64.102,24.965-124.37,70.297-169.702C131.63,40.965,191.898,16,256,16c64.108,0,124.378,24.965,169.708,70.297
		C471.037,131.628,496,191.896,496,256C496,320.115,471.037,380.387,425.708,425.714z"/>
</g>
<g>
</g>
<g>
</g>
<g>
</g>
<g>
</g>
<g>
</g>
<g>
</g>
<g>
</g>
<g>
</g>
<g>
</g>
<g>
</g>
<g>
</g>
<g>
</g>
<g>
</g>
<g>
</g>
<g>
</g>
</svg>
