<?xml version="1.0" standalone="no"?>
<!DOCTYPE svg PUBLIC "-//W3C//DTD SVG 20010904//EN"
 "http://www.w3.org/TR/2001/REC-SVG-20010904/DTD/svg10.dtd">
<svg version="1.0" xmlns="http://www.w3.org/2000/svg"
 width="127.000000pt" height="24.000000pt" viewBox="0 0 127.000000 24.000000"
 preserveAspectRatio="xMidYMid meet">
<metadata>
Created by potrace 1.16, written by Peter Selinger 2001-2019
</metadata>
<g transform="translate(0.000000,24.000000) scale(0.100000,-0.100000)"
fill="#ffffff" stroke="none">
<path d="M0 220 c0 -11 6 -20 13 -20 9 0 11 -25 9 -100 l-3 -100 40 0 41 0 0
100 0 100 35 0 35 0 0 -100 0 -100 49 0 c35 0 51 4 55 16 9 24 8 27 -14 21
-19 -5 -20 0 -20 99 l0 104 -120 0 c-113 0 -120 -1 -120 -20z"/>
<path d="M350 229 c0 -6 4 -19 10 -29 8 -14 0 -36 -35 -102 -25 -46 -45 -86
-45 -90 0 -5 22 -8 49 -8 35 0 51 4 55 16 11 29 6 44 -14 44 -24 0 -24 5 -1
48 l17 34 32 -71 c31 -71 31 -71 71 -71 22 0 42 5 44 13 4 9 6 9 6 0 1 -9 18
-13 51 -13 49 0 50 0 50 31 0 27 -3 31 -21 26 -12 -3 -18 -2 -13 3 5 4 23 11
41 15 30 6 33 4 53 -34 19 -38 24 -41 60 -41 22 0 40 2 40 4 0 2 3 12 7 22 5
13 3 16 -9 12 -12 -5 -26 18 -60 95 l-44 102 -42 3 c-44 3 -50 -4 -32 -39 11
-19 1 -43 -53 -129 -36 -57 -48 -48 -92 66 l-40 104 -42 0 c-24 0 -43 -5 -43
-11z"/>
<path d="M856 225 c-35 -26 -56 -69 -56 -112 0 -35 6 -48 35 -78 33 -32 41
-35 94 -35 49 0 61 4 81 26 20 21 22 27 10 34 -9 6 -20 4 -30 -5 -8 -7 -27
-16 -42 -20 -55 -14 -84 55 -57 134 20 56 77 30 65 -29 -5 -25 -2 -30 14 -30
15 0 23 13 35 52 20 70 19 78 -10 78 -14 0 -25 -5 -25 -12 0 -9 -3 -9 -12 0
-16 16 -79 15 -102 -3z"/>
<path d="M1030 185 c0 -65 22 -76 40 -20 6 19 18 35 26 35 11 0 14 -20 14
-100 l0 -100 55 0 c49 0 55 2 55 21 0 15 -5 19 -17 15 -16 -5 -18 3 -18 79 0
70 3 85 15 83 8 -2 18 -18 24 -36 17 -59 46 -31 46 46 l0 32 -120 0 -120 0 0
-55z"/>
</g>
</svg>
